<?xml version="1.0" encoding="UTF-8"?>
<svg id="Layer_1" data-name="Layer 1" xmlns="http://www.w3.org/2000/svg" viewBox="0 0 287.72 143.24">
  <defs>
    <style>
      .cls-1 {
        fill: #f37a21;
      }

      .cls-2 {
        fill: #f9a71e;
      }

      .cls-3 {
        fill: #ffcc0b;
      }

      .cls-4 {
        fill: #231f20;
      }
    </style>
  </defs>
  <g>
    <path class="cls-1" d="m99.1,0c-7.1,10.16-24.28,34.02-24.45,34.27-.28.39-.73.62-1.21.62-10.48-.07-21.07-.05-31.48.05-5.57.05-9.39.42-11.36,1.08-4.06,1.35-7.27,4.09-9.53,8.14-1.23,2.21-2.09,4.28-2.37,5.68-2.65,13.18-5.3,26.36-7.97,39.55h17.64l8.38-39.49c.13-.59.58-.95,1.18-.95h11.85l.66-3.14c.11-.48.48-.79.97-.8l7.47-.04c.42-.02.67.17.82.32.14.15.31.42.27.85l-.23,2.82c-.02.21.02.29.02.29,0,0,.07.04.29.04,3.08-.06,25.32-.39,29.19-.45L99.1,0Z"/>
    <path class="cls-1" d="m9.69,129.9c.57-.86,1.16-1.73,1.76-2.62l12.63-18c.25-.37.64-.57,1.1-.57,12.44.01,25.05-.03,37.48-.13,9.02-.07,15.52-5.65,17.38-14.94,2.62-13.08,5.26-26.18,7.92-39.31h-17.72s-8.49,40.12-8.49,40.12l-52.03.21-.02.18L0,143.24c3.36-3.9,6.33-8.32,9.69-13.34Z"/>
    <polygon class="cls-3" points="39.97 62.58 62.67 62.45 64.42 54.48 41.69 54.48 39.97 62.58"/>
    <path class="cls-2" d="m39.1,67.99c-.18,0-.33.12-.37.29h0s-1.5,7.27-1.5,7.27h22.51c.13,0,.22-.08.24-.19.42-2.5.96-4.96,1.61-7.32l-22.49-.05Z"/>
    <polygon class="cls-1" points="58.74 81.03 36.03 81.11 34.29 89.24 56.99 89.24 58.74 81.03"/>
  </g>
  <g>
    <path class="cls-1" d="m281.8,81.16c-1.74,0-2.98-.4-4.07-1.2-1.27-.93-2.12-2.16-2.43-3.71-.39-1.93.05-3.67,1.31-5.19.99-1.18,2.25-1.89,3.76-2.14,1.8-.3,3.44.11,4.91,1.19.78.58,1.39,1.32,1.82,2.19.4.82.61,1.69.62,2.61.01,1.41-.41,2.67-1.27,3.79-.57.74-1.27,1.33-2.11,1.75-.92.47-1.9.71-2.55.7Zm-.31-1.04c.11,0,.3-.02.48-.03,1.05-.1,2-.47,2.82-1.15,1.38-1.14,2.03-2.6,1.86-4.39-.13-1.37-.76-2.49-1.82-3.35-1.28-1.04-2.75-1.39-4.37-1.12-1.06.18-1.98.64-2.75,1.39-1.02.98-1.55,2.18-1.55,3.6,0,1.55.64,2.82,1.81,3.82.98.83,2.14,1.23,3.51,1.24Z"/>
    <path class="cls-1" d="m284.42,77.4c-.09,0-.14.01-.18.01-.43,0-.86,0-1.29,0-.11,0-.18-.04-.24-.12-.4-.54-.8-1.07-1.2-1.61-.09-.12-.18-.19-.34-.17-.13.01-.25,0-.4,0-.02.22-.01.43-.01.63,0,.21,0,.41,0,.62s0,.41,0,.61c-.16.05-1.07.06-1.33.02,0-.07-.01-.14-.01-.22,0-1.25,0-2.5,0-3.75,0-.32,0-.64,0-.97,0-.06,0-.13,0-.2.07,0,.12-.02.17-.02.81,0,1.62,0,2.43,0,.35,0,.7.06,1.02.24.49.27.74.74.68,1.3-.01.1-.02.19-.04.29-.09.47-.4.77-.78,1.01-.05.03-.1.06-.15.09,0,0-.01.02-.03.05.54.72,1.12,1.42,1.69,2.18Zm-3.65-2.85s.05.03.07.03c.3-.01.61,0,.9-.04.33-.04.55-.28.59-.62.05-.36-.11-.6-.47-.69-.04-.01-.09-.03-.13-.03-.31,0-.62,0-.92,0-.01,0-.02.01-.04.03v1.32Z"/>
  </g>
  <path class="cls-4" d="m213.02,90.83h17.25l1.36-6.85h-17.25l-1.36,6.85Zm-1.93-12.28h-6.72l-4.86,24.55h28.32l1.36-6.85h-21.61c1.17-5.9,2.34-11.8,3.51-17.71l1.36-6.85h21.61l-1.36,6.85h-21.61Z"/>
  <path class="cls-1" d="m112.65,111.84l-1.36,6.85h-28.32l-4.86,24.55h6.72c1.59-8.03,3.23-16.29,4.86-24.55l1.36-6.85h21.61Zm-19.5,12.27h13.8l-1.36,6.85h-13.8l1.36-6.85Z"/>
  <path class="cls-1" d="m159.63,111.84l-4.86,24.55h-6.72l4.86-24.55h6.72Zm-4.86,24.55h21.6l-1.36,6.85h-21.6l1.36-6.85Z"/>
  <path class="cls-1" d="m191.32,111.84l-4.86,24.55h-6.72l4.86-24.55h6.72Zm-4.86,24.55h21.6l-1.36,6.85h-21.6l1.36-6.85Z"/>
  <path class="cls-4" d="m117.58,71.7c.91,0,1.77.23,2.4.71.63.47,1.22,1.18,1.62,1.89.41.71.77,1.65.94,2.6.18.94.13,2.12-.06,3.07l-1.26,6.38c-.23,1.18-.65,2.36-1.2,3.3-.59,1.18-1.28,1.89-1.97,2.6-.68.71-1.55,1.42-2.37,1.89-.77.24-1.73.47-2.64.47h-12.35l-3.91-6.85h16.16c.36,0,.77-.24,1-.47.28-.47.55-.94.64-1.42l1.08-5.43c.09-.47,0-.94-.13-1.18-.09-.47-.4-.71-.77-.71h-24.15l-4.86,24.55h6.72l4.86-24.55,1.36-6.85h18.88Z"/>
  <path class="cls-4" d="m263.75,71.7c.91,0,1.58.23,2.22.71.86.24,1.45.94,1.9,1.42.41.71.76,1.65.76,2.6.18.94.17,1.89-.06,3.07l-.98,4.96c-.19.94-.6,2.12-1.34,3.07-.55.94-1.42,1.65-2.23,2.13.81.47,1.22,1.18,1.62,1.89.18.94.17,1.89-.06,3.07l-1.68,8.5h-6.72l1.59-8.03c.14-.71.19-.95-.08-1.42-.14-.24-.45-.47-.81-.47h-10.89l-3.91-6.85h16.16c.36,0,.59-.24,1-.47.41-.24.5-.71.6-1.18l.89-4.49c.09-.47.14-.71-.13-1.18-.14-.24-.45-.47-.81-.47h-24.15l-4.86,24.55h6.72l4.86-24.55,1.36-6.85h19.07Z"/>
  <path class="cls-1" d="m148.85,111.84l-4.3,21.72c-.28,1.42-.7,2.6-1.48,3.78-.6,1.18-1.37,2.36-2.24,3.07-.73.94-1.78,1.65-2.78,2.13-1,.47-2.13.71-3.05.71h-17.79l1.36-6.85h16.88c.55,0,.95-.24,1.41-.71.46-.47.73-.94.87-1.65l4.39-22.19h6.72Zm-37,24.55l4.86-24.55h6.72l-4.86,24.55h-6.72Z"/>
  <path class="cls-4" d="m158.32,77.81c-.13-1.18-.37-2.36-.96-3.07-.54-.94-1.09-1.68-1.9-2.15-.81-.47-1.77-.97-2.68-.97h-18.06l-1.4,7.08h17.15c.54,0,.78.14,1.05.62.27.47.23,1.09.13,1.56l-2.57,12.99c-.14.71-.34,1.31-.79,1.78-.46.47-.7.37-1.24.37h-15.25c-.36,0-1.06.1-1.15-.37-.27-.47-.46-1.08-.32-1.78l3-15.16h-6.66l-2.91,14.69c-.28,1.42-.23,2.6-.1,3.78.13,1.18.5,2.36,1.08,3.07.54.94,1.33,1.67,2.14,2.14.82.47,1.7.72,2.79.72h16.88c.91,0,2.05-.25,3.05-.72,1-.47,1.87-1.19,2.78-2.13.87-.71,1.51-1.89,2.11-3.07.6-1.18,1.06-2.36,1.34-3.78l2.34-11.81c.28-1.41.28-2.6.15-3.78Z"/>
  <g>
    <path class="cls-4" d="m201.81,71.7l-4.3,21.72c-.28,1.42-.7,2.6-1.3,3.78-.78,1.18-1.56,2.36-2.24,3.07-.91.94-1.96,1.65-2.96,2.13-1,.47-1.95.71-3.05.71h-23.42l1.36-6.85h22.51c.55,0,.95-.24,1.41-.71.46-.47.73-.94.87-1.65l4.39-22.19h6.72Zm-42.63,24.55l4.86-24.55h6.72l-4.86,24.55h-6.72Z"/>
    <polygon class="cls-4" points="182.63 90.59 186.37 71.7 179.65 71.7 175.91 90.59 182.63 90.59"/>
  </g>
</svg>